<svg xmlns="http://www.w3.org/2000/svg" viewBox="0 0 100 100"><defs><style>.cls-1,.cls-3,.cls-4{fill:#fff;}.cls-2,.cls-3{stroke:#000;}.cls-2{stroke-linecap:round;stroke-linejoin:round;stroke-width:3.87px;}.cls-2,.cls-3,.cls-4{fill-rule:evenodd;}.cls-3{stroke-miterlimit:10;stroke-width:0.28px;}</style></defs><title>Vimeo Staff Pick</title><g id="Layer_2" data-name="Layer 2"><g id="Layer_1-2" data-name="Layer 1"><circle cx="50" cy="50" r="50"/><path class="cls-1" d="M28.5 43.39v4.14h2.6V39.8h-3.62a2 2 0 0 1-2.05-2v-9.08a2 2 0 0 1 2.05-2.05h4.65a2 2 0 0 1 2.05 2v5H31.1v-4h-2.6v7h3.62a2.06 2.06 0 0 1 2.05 2.05v9.81a2.05 2.05 0 0 1-2.05 2h-4.64a2.07 2.07 0 0 1-2.05-2v-5.2zM38.62 29.75h-2.73v-3.08h8.55v3.08H41.7V50.6h-3.08zM51.82 45.92H48.4l-.48 4.68h-3.07l2.53-23.93h5.47l2.46 23.93h-3zm-3.08-3.08h2.74l-1.37-13.09zM57.22 50.6V26.67h7.69v3.08H60.3v6.6h3.25v3.08H60.3V50.6zM67 50.6V26.67h7.69v3.08H70v6.6h3.25v3.08H70V50.6zM31.94 53.68h6.7a2.06 2.06 0 0 1 2.05 2.05v9a2.05 2.05 0 0 1-2.05 2H35v10.89h-3.06V53.68zm5.68 3.08H35v6.91h2.6zM42.74 53.68h3.08v23.94h-3.08zM54.23 60.86v-4.1h-2.6v17.78h2.6V70.4h3.08v5.2a2.05 2.05 0 0 1-2.05 2h-4.65a2.07 2.07 0 0 1-2.05-2V55.73a2.1 2.1 0 0 1 2.05-2.05h4.65a2.06 2.06 0 0 1 2.05 2.05v5.13zM62.64 53.68v9l2.39-9h3.25L65 64.79l3.62 12.82h-3.14l-2.84-10.46v10.47h-3.07V53.68z"/><path class="cls-2" d="M91.7 43l.09.57c0 .34.13.79.19 1.25l.17 1.83s-.69-.69-1.37-1.32l-.5-.46-.46-.39-.45-.37-.08-.53c-.06-.32-.1-.75-.19-1.17l-.37-1.69s.75.53 1.51 1.11l.56.43.46.39zM94.08 39.39l.42 1.92c.1.48.16 1 .22 1.33l.09.61-.31.54-.32.54c-.12.2-.26.41-.4.62-.55.83-1.1 1.62-1.1 1.62l-.17-1.85c-.06-.46-.14-.92-.19-1.26l-.09-.57.31-.53.31-.55.33-.63c.47-.88.9-1.79.9-1.79zM90.76 38.67l.16.55c.11.33.19.78.29 1.23l.27 1.23.09.41v.16s-.18-.15-.47-.38l-1-.79-1-.76c-.28-.2-.48-.33-.48-.33l-.47-1.66c-.06-.21-.11-.42-.18-.61l-.18-.52-.18-.51.39.31c.3.17.73.4 1.12.65.88.47 1.64 1.02 1.64 1.02zM92.75 34.86l.2.58.21.59c.08.22.13.46.21.69l.54 1.89s-.09.23-.26.57-.38.79-.6 1.23-.45.87-.61 1.19-.29.53-.29.53v-.16l-.15-.4-.27-1.25c-.1-.45-.19-.91-.29-1.24l-.16-.56s.4-.88.78-1.8c.19-.46.34-.92.47-1.27zM89.39 34.49l.06.15.14.39.41 1.18c.15.43.31.86.4 1.2l.16.55-.5-.33-.51-.33-.61-.36c-.83-.48-1.64-.91-1.64-.91l-.18-.51-.46-1.1-.46-1.1-.2-.47.54.23c.33.14.74.34 1.16.55.82.37 1.69.86 1.69.86zM91 30.49l.27.55.53 1.25.52 1.25.21.58s-.32 1-.66 1.88l-.25.67-.25.58-.24.56-.16-.56c-.08-.34-.25-.77-.4-1.21l-.42-1.21-.14-.4-.06-.15s.29-.91.57-1.86c.13-.47.28-1 .36-1.32zM87.57 30.47l.81 1.65c.2.41.36.84.5 1.16l.22.53s-.86-.44-1.7-.84c-.42-.2-.87-.38-1.2-.51l-.54-.22-.24-.48-.24-.5c-.1-.18-.21-.36-.31-.55L84 29.19s.87.28 1.77.6l1.24.45zM88.74 26.33l1 1.71c.12.21.24.43.35.63l.28.56.27.55-.13.61c-.08.37-.18.84-.31 1.32-.27 1-.56 1.88-.56 1.88l-.22-.54c-.14-.32-.3-.76-.51-1.17l-.82-1.67.14-.6c.07-.35.15-.83.24-1.32l.27-1.96zM85.35 26.67l.31.48c.18.29.45.67.67 1.07l.91 1.6s-.91-.35-1.8-.65-1.79-.56-1.79-.56l-.94-1.45-1-1.39s.9.18 1.84.4c.47.1.92.24 1.26.34zM86.08 22.43L87.25 24l1.07 1.65s-.09 1-.26 2-.34 1.92-.34 1.92l-.92-1.62c-.22-.41-.49-.79-.67-1.09l-.32-.49.07-.61c0-.36.1-.86.12-1.35.06-.97.08-1.98.08-1.98zM82.76 23.11l.37.44c.22.26.48.64.76 1l.75 1c.1.14.18.26.24.34l.09.13-.57-.16-1.28-.3-1.26-.27-.41-.08h-.16l-1.1-1.33-.41-.49-.38-.4-.4-.4.58.05c.35 0 .83.07 1.29.15.93.15 1.89.32 1.89.32zM83 18.83l.42.45.43.46.46.55 1.25 1.51v.63c0 .38 0 .88-.05 1.37s-.05 1-.08 1.34-.06.61-.06.61l-.09-.13c-.05-.09-.13-.21-.24-.35l-.76-1c-.28-.37-.54-.76-.77-1l-.37-.45v-2c0-.5-.05-1-.08-1.36zM79.82 19.83l.11.11.28.3.86.92c.31.34.63.67.84.94l.37.44-.59-.1-.6-.1-.7-.08c-1-.11-1.87-.18-1.87-.18l-.37-.4-.86-.82-.85-.86-.44-.3h1.87c.97.06 1.95.13 1.95.13zM79.67 15.54l.47.4 1 .93 1 .93.42.45s.09 1 .15 2v1.95l-.37-.45c-.21-.28-.54-.61-.85-1l-.87-.93-.29-.31-.12-.11s-.1-1-.23-1.93c-.07-.49-.13-1-.2-1.36zM76.55 16.88l1.4 1.19c.35.3.67.63.92.86l.42.4s-1-.06-1.9-.09H75.5l-.41-.35-.42-.36-.51-.38-1.38-1s.91-.09 1.86-.16l1.36-.1zM76 12.61l1.57 1.18.58.43.48.41.47.4.12.61c.07.37.17.84.24 1.33.14 1 .24 1.95.24 1.95l-.42-.4c-.26-.24-.58-.57-.93-.87l-1.42-1.2-.11-.6c-.08-.35-.19-.82-.31-1.3-.27-.96-.51-1.94-.51-1.94zM91 60.46s0 .22-.15.55l-.34 1.21c-.12.44-.27.88-.38 1.2l-.18.54-.22-.56c-.14-.33-.31-.77-.5-1.2-.4-.87-.81-1.7-.81-1.7s.06-.21.14-.52l.27-1.16c.1-.42.2-.84.25-1.16l.09-.53.31.5c.18.3.43.71.65 1.12.44.84.87 1.71.87 1.71zM94.6 58.12l-.11.61c-.06.36-.17.84-.28 1.32l-.3 1.32c-.09.36-.16.59-.16.59s-.82.6-1.62 1.15c-.41.28-.83.54-1.14.73l-.52.32.19-.55c.11-.33.27-.77.39-1.22l.35-1.23c.1-.33.15-.56.15-.56s.77-.57 1.55-1.19c.4-.31.77-.63 1-.87zM91.85 56.14v.16c0 .1 0 .24-.06.41l-.22 1.24-.12.66-.13.57-.13.56-.28-.53c-.17-.32-.38-.73-.63-1.14-.48-.82-1-1.6-1-1.6v-.15c0-.09 0-.23.06-.39l.15-1.18.08-.63v-1.09l.35.46c.21.28.51.66.76 1 .65.83 1.17 1.65 1.17 1.65zM95.19 53.44v1.24l-.19.72-.17 1.34c0 .18 0 .33-.07.44v.17s-.75.68-1.5 1.31c-.36.32-.77.62-1.05.84l-.48.37.13-.57.13-.58.12-.67.22-1.26c0-.17.05-.32.06-.42v-.16s.71-.65 1.42-1.34c.37-.35.69-.7.95-1zM92.25 51.75v.58l-.1 1.26c0 .46-.07.92-.12 1.26l-.07.57-.33-.5c-.2-.3-.46-.69-.75-1.07-.57-.77-1.13-1.49-1.13-1.49V48.9l.4.43c.23.26.58.61.87 1 .63.67 1.23 1.42 1.23 1.42zM95.3 48.73v3.92s-.68.75-1.36 1.46c-.33.35-.69.7-1 .95l-.44.42.07-.58c.05-.35.09-.81.12-1.27l.1-1.27v-.58s.64-.72 1.28-1.48c.33-.38.61-.77.84-1.07zM92.21 47.34l.06 1.84V51l-.38-.46c-.22-.28-.52-.64-.85-1-.64-.71-1.29-1.37-1.29-1.37v-.54c0-.32-.07-.75-.1-1.18l-.11-1.18a4.77 4.77 0 0 0-.06-.54l.12.1.32.28.94.88.94.92.31.31zM94.94 44a6.06 6.06 0 0 1 .07.61l.13 1.39c0 .49.1 1 .11 1.35v.61s-.6.82-1.19 1.59c-.29.39-.61.76-.85 1l-.4.46v-.58-1.28l-.06-1.86.1-.13.25-.36.76-1.11.75-1.15.24-.39zM70 87.53l-.14.08-.37.19-1.12.58c-.41.22-.83.39-1.14.53l-.52.24s.42-.87.8-1.73.69-1.75.69-1.75l.48-.25 1-.59c.37-.22.75-.42 1-.61l.45-.29-.16.56-.17.58-.22.65c-.24.9-.58 1.81-.58 1.81zM74.16 88.59l-.52.33c-.31.21-.74.44-1.16.69l-1.17.67-.55.28s-1-.19-1.94-.41-1.89-.51-1.89-.51l.53-.24c.31-.15.75-.32 1.16-.54l1.14-.58.37-.19.14-.08s.94.18 1.92.33l.72.11.63.07zM73.75 85.22l-.13.09-.34.23-1.06.68-.57.36-.51.29-.5.29.2-.56c.12-.34.28-.78.42-1.24.28-.92.51-1.81.51-1.81l.13-.08.32-.22 1-.69.52-.37.44-.34.42-.33-.1.57c-.07.34-.14.82-.25 1.27-.25.92-.5 1.86-.5 1.86zM78 85.85l-.48.38-.5.39-.59.42-1.1.78-.37.25-.14.09s-1-.09-2-.21c-.48-.06-1-.15-1.34-.2l-.6-.1.5-.29.52-.3.58-.36 1.1-.7.35-.24.13-.09s1 .08 2 .14h1.36zM77.24 82.54l-.43.38-1 .78c-.36.28-.72.57-1 .76l-.47.33.15-.58.14-.59.14-.69c.18-.94.33-1.84.33-1.84l.11-.09.3-.26.9-.78c.33-.28.63-.59.87-.81l.39-.37s-.07.92-.16 1.87-.27 1.89-.27 1.89zM81.54 82.73l-.44.42c-.27.25-.61.6-1 .92l-1 .88-.34.29-.13.11H74.67l.47-.34c.29-.19.65-.49 1-.77l1-.79.46-.45s1 0 2-.06 1.94-.21 1.94-.21zM80.45 79.51l-.4.42c-.23.26-.57.57-.9.88l-.92.87-.43.38s.15-.94.23-1.89c0-.47.08-.94.11-1.28s0-.58 0-.58L79.37 77l1.13-1.31v3.18zM84.74 79.27l-1.29 1.49-1.35 1.42s-.24 0-.62.07l-1.36.12c-1 .09-2 .1-2 .1l.44-.38.93-.88c.34-.32.68-.64.91-.9l.4-.42.6-.07c.36 0 .86-.1 1.34-.19 1.01-.16 2-.36 2-.36zM83.32 76.18l-.35.45c-.21.27-.49.63-.8 1l-.83 1-.28.31L81 79v-.6-1.32-1.88l.33-.43c.19-.26.48-.59.72-.94l.69-1 .23-.32.08-.12v.58c0 .35.09.81.14 1.28s.09 1 .1 1.31zM87.57 75.5l-.09.14-.26.36-.78 1.1c-.28.41-.6.78-.82 1.07l-.38.48-.6.14-1.35.26-1.29.23-.61.08.11-.12.28-.31.84-1c.31-.35.6-.71.81-1l.36-.46.6-.13c.36-.08.83-.2 1.3-.33l1.31-.33.44-.13zM85.84 72.57l-.31.48c-.19.29-.42.68-.69 1.06l-.73 1-.24.34-.09.13v-.6s-.07-.84-.12-1.3-.1-.93-.16-1.28l-.09-.58.29-.45.3-.47c.11-.17.21-.36.32-.55l.59-1c.08-.14.14-.26.19-.34l.07-.13s.06.23.14.57.17.79.26 1.26.18.94.24 1.29zM90 71.45l-.08.15c0 .1-.12.23-.21.39L89 73.17c-.12.21-.24.43-.36.62l-.34.53-.33.52-.59.2c-.35.12-.83.26-1.31.4l-1.3.35-.58.15.09-.13.24-.34.74-1c.27-.38.51-.78.7-1.07l.31-.49.58-.19 1.26-.47 1.27-.5zM88 68.72l-.84 1.63-.91 1.59s-.17-1-.35-1.88c-.09-.46-.21-.92-.3-1.26l-.15-.57.25-.48c.16-.28.33-.68.5-1.08s.36-.79.49-1.08l.2-.5.2.55c.12.34.25.77.39 1.23s.27.91.37 1.26.15.59.15.59zM92 67.17l-.23.57c-.15.34-.35.79-.55 1.23s-.4.9-.58 1.22l-.28.55-.57.26c-.34.15-.78.36-1.25.53-.93.36-1.83.69-1.83.69l.93-1.61.84-1.61s.23-.09.55-.25l1.21-.59c.44-.22.89-.45 1.21-.63zM89.71 64.67L89 66.38c-.16.43-.37.84-.51 1.16l-.24.52s-.26-.93-.54-1.83-.63-1.77-.63-1.77l.2-.5c.12-.3.24-.72.39-1.12s.29-.81.37-1.13l.15-.52.25.53c.16.32.34.75.52 1.18.4.86.75 1.77.75 1.77zM93.53 62.71s-.25 1-.59 1.88c-.16.46-.31.93-.44 1.28l-.22.57s-.87.51-1.73 1-1.76.87-1.76.87l.24-.53c.14-.32.35-.74.51-1.17l.68-1.73s.82-.49 1.66-1c.42-.27.84-.54 1.14-.76zM66 89.43l-1.71.67-1.74.59s.51-.83 1-1.64c.24-.4.45-.83.61-1.14l.26-.52.5-.2c.31-.11.69-.3 1.09-.48l1.08-.49.48-.25s-.33.88-.73 1.73c-.2.43-.4.86-.56 1.19s-.28.54-.28.54zM70.06 90.92l-.55.28-1.23.56c-.45.2-.89.41-1.24.54l-.57.23-.6-.18c-.36-.11-.82-.25-1.29-.43-.94-.34-1.83-.69-1.83-.69l1.76-.6 1.73-.68.58.17 1.3.35c.96.26 1.94.45 1.94.45zM6.9 42.88l-.09.57c-.05.34-.13.8-.19 1.26l-.17 1.85s-.55-.79-1.1-1.62c-.13-.21-.28-.42-.4-.62l-.32-.54-.31-.54.09-.61c.06-.36.12-.85.22-1.33l.42-1.92s.43.92.88 1.78l.33.63.31.55zM10.44 40.66l-.37 1.69c-.09.42-.14.85-.19 1.17l-.08.53-.45.37-.46.39-.5.46c-.7.66-1.39 1.34-1.39 1.34l.17-1.83c.06-.46.14-.91.19-1.25l.08-.53.45-.39.46-.39.56-.43c.78-.6 1.53-1.13 1.53-1.13zM7.85 38.52l-.16.56c-.11.33-.19.79-.29 1.24l-.27 1.25L7 42v.16s-.13-.21-.29-.53-.39-.75-.61-1.19-.44-.89-.6-1.23-.26-.57-.26-.57l.54-1.89c.07-.24.13-.48.21-.69l.21-.59.2-.58.21.59c.13.35.28.81.47 1.27.38.89.77 1.77.77 1.77zM11.61 36.69l-.18.51-.18.52c-.07.19-.12.4-.18.61L10.59 40s-.2.13-.48.33l-1 .76-1 .79c-.29.22-.47.38-.47.38v-.16l.09-.41.27-1.23c.1-.45.18-.9.29-1.23l.16-.55s.8-.54 1.59-1c.39-.25.82-.48 1.12-.65zM9.24 34.28l-.06.15-.14.4L8.62 36c-.15.44-.32.87-.4 1.21l-.16.56-.24-.56-.25-.58-.25-.63c-.34-.92-.66-1.88-.66-1.88l.21-.58.52-1.25.52-1.29.27-.55.14.6c.08.36.23.85.36 1.32.32 1 .56 1.91.56 1.91zM13.18 32.85l-.24.48-.46 1.1-.48 1.1-.18.51s-.81.44-1.64.91l-.61.36-.51.33-.5.33.16-.55c.08-.33.25-.76.4-1.2L9.56 35l.14-.39.06-.15s.86-.45 1.71-.86c.43-.2.84-.41 1.16-.55zM11.08 30.22l-.82 1.67c-.2.42-.37.85-.51 1.17l-.22.54s-.29-.92-.56-1.88c-.13-.48-.23-1-.31-1.32l-.13-.61.27-.55.28-.56c.11-.2.23-.42.35-.63l1-1.71s.14 1 .31 2c.08.49.17 1 .24 1.32zM15.13 29.19l-.85 1.5c-.11.19-.22.37-.31.55l-.24.5-.24.48-.54.22c-.32.14-.77.31-1.2.51-.84.4-1.7.84-1.7.84l.22-.53c.14-.31.3-.75.5-1.16l.81-1.65.55-.23 1.24-.45c.89-.3 1.76-.58 1.76-.58zM13.33 26.37l-.32.49c-.19.29-.45.68-.67 1.09l-.92 1.62s-.18-.94-.34-1.92-.26-2-.26-2L11.9 24l1.16-1.58s0 1 .08 2c0 .48.08 1 .12 1.35zM17.47 25.76l-1 1.39-.94 1.45s-.91.24-1.79.56-1.8.65-1.8.65l.91-1.6c.22-.41.48-.78.66-1.07l.31-.48.57-.17c.34-.1.79-.23 1.26-.34.91-.2 1.82-.39 1.82-.39zM16 22.76l-.37.45c-.23.27-.49.65-.77 1l-.76 1c-.11.14-.18.26-.24.35l-.09.13s0-.25-.06-.61-.05-.84-.08-1.34 0-1-.05-1.37v-.57l1.25-1.51.46-.55.43-.46.42-.45v.62c0 .38-.07.85-.08 1.36-.06.99-.06 1.95-.06 1.95zM20.14 22.59l-.37.39-.38.4-.41.49-1.1 1.33h-.16l-.41.08-1.26.27-1.28.3-.57.16.09-.13c.05-.08.13-.21.24-.34l.75-1c.28-.37.53-.75.76-1l.37-.44s1-.18 1.88-.32c.46-.08.94-.11 1.29-.15zM18.94 19.44l-.12.11-.29.31-.87.93c-.32.34-.64.68-.85 1l-.37.45v-1.29-.71c.06-1 .15-2 .15-2l.42-.45 1-.93 1-.93.47-.4-.12.61c-.07.36-.13.87-.2 1.36-.16.99-.22 1.94-.22 1.94zM23.12 19.7l-.42.3-.86.82-.86.82-.37.4s-.92.07-1.87.18l-.7.08-.6.1-.59.1.37-.44c.21-.27.53-.6.84-.94l.86-.92.28-.3.11-.11s1-.07 1.91-.11h1.28zM22.25 16.45l-1.42 1.2c-.36.3-.68.64-.93.87l-.42.4s.1-1 .24-1.95c.07-.49.17-1 .24-1.33l.12-.61.47-.4.48-.41.58-.43 1.57-1.18s-.27 1-.51 1.93c-.12.48-.23.95-.31 1.3zM26.37 17.12l-1.38 1-.51.38-.42.36-.41.35h-1.88c-.93 0-1.9.09-1.9.09l.42-.4c.25-.23.57-.56.92-.86l1.4-1.19h.59l1.32.08c.94.07 1.85.19 1.85.19zM7.61 60.59s0 .23.15.56l.35 1.23c.12.45.27.89.39 1.22l.19.55-.52-.32c-.31-.19-.73-.45-1.14-.73C6.22 62.55 5.4 62 5.4 62s-.07-.24-.16-.59L4.93 60c-.11-.48-.22-1-.28-1.32l-.11-.61.47.41c.28.24.65.57 1 .87.83.65 1.6 1.24 1.6 1.24zM10 57.14l.09.53c0 .32.15.74.25 1.16l.25 1.17c.08.31.14.52.14.52s-.41.83-.81 1.7c-.19.43-.37.87-.5 1.2L9.2 64l-.2-.57c-.11-.33-.26-.76-.38-1.2L8.29 61c-.1-.33-.15-.55-.15-.55s.44-.87.88-1.69c.22-.41.46-.82.65-1.12zM6.75 56.21v.16c0 .1 0 .25.06.42L7.06 58l.12.67.13.58.13.57L7 59.5c-.29-.22-.69-.53-1.05-.84-.74-.63-1.5-1.31-1.5-1.31v-.17c0-.11 0-.26-.07-.44l-.24-1.34-.14-.72v-1.24l.42.46c.26.27.58.63.95 1 .63.67 1.38 1.31 1.38 1.31zM9.46 53v1.09l.08.63.15 1.18c0 .16 0 .29.06.39v.15s-.49.78-1 1.6c-.25.41-.46.83-.63 1.14l-.12.56-.13-.56-.13-.57-.12-.66-.24-1.25c0-.17-.05-.31-.06-.41v-.16s.52-.82 1.05-1.59c.25-.39.55-.77.76-1zM6.34 51.77v.58l.1 1.27c0 .46.07.93.12 1.27l.07.58-.44-.42c-.27-.25-.63-.59-1-.95-.68-.7-1.36-1.46-1.36-1.46V48.72l.37.5c.23.3.51.69.84 1.07.66.77 1.3 1.48 1.3 1.48zM9.37 48.88v3.46s-.57.72-1.13 1.49c-.29.38-.55.78-.75 1.07l-.33.5-.07-.57C7.08 54.5 7 54 7 53.58l-.1-1.26v-.58s.6-.74 1.2-1.47c.29-.36.63-.71.87-1zM6.38 47.31l-.06 1.86V51l-.4-.46c-.24-.28-.56-.66-.85-1-.6-.77-1.19-1.59-1.19-1.59v-.61C3.9 47 4 46.47 4 46l.13-1.35a6.07 6.07 0 0 1 .08-.65l.09.15.24.39.75 1.15.71 1.13.25.36zM9.68 44.74a4.77 4.77 0 0 0-.06.54l-.11 1.18c0 .43-.09.86-.1 1.18v.54s-.64.66-1.29 1.37c-.33.35-.63.72-.85 1l-.39.45v-.57-1.26l.06-1.84.06-.1.31-.31.99-.92.94-.88.32-.28zM28.88 88l.14.08.37.19 1.14.58c.41.22.84.39 1.16.54l.53.24s-.93.26-1.89.51-1.94.41-1.94.41l-.55-.28-1.17-.67c-.43-.25-.86-.48-1.16-.69l-.51-.32.62-.06.63-.07.72-.11c.97-.16 1.91-.35 1.91-.35zM28 83.93l.45.29c.27.18.65.39 1 .61l1 .59.48.25s.32.87.69 1.75.8 1.73.8 1.73l-.52-.24c-.31-.15-.74-.32-1.14-.53l-1.12-.58-.37-.19-.14-.08s-.34-.91-.64-1.8l-.22-.65-.17-.58zM25.08 85.68l.13.09.35.24 1.08.69.58.36.52.3.5.29-.6.1c-.36.06-.85.15-1.34.2-1 .12-2 .21-2 .21l-.14-.09-.37-.25-1.08-.82-.59-.42-.5-.39-.48-.38h1.98c1.01-.05 1.96-.13 1.96-.13zM24.58 81.52l.42.33.44.34.52.37 1 .69.32.22.13.08s.24.89.51 1.81c.14.46.3.89.42 1.24l.2.56-.5-.29-.51-.29-.57-.36-1.06-.68-.34-.23-.13-.09s-.25-.94-.46-1.85c-.11-.45-.19-.93-.25-1.27zM21.54 83l.44.38 1 .79c.37.29.73.58 1 .77l.47.34h-3.96l-.13-.11-.3-.17-1-.88c-.38-.32-.72-.67-1-.92l-.44-.42s1 .1 2 .17 1.92.05 1.92.05zM21.47 78.78l.39.37c.24.22.54.53.87.81l.9.78.3.26.11.09s.15.91.33 1.84l.14.69.14.59.15.58-.47-.33c-.29-.19-.64-.48-1-.76l-1-.78-.43-.38s-.16-1-.27-1.88-.16-1.88-.16-1.88zM18.3 79.9l.4.42c.23.26.58.57.91.9s.67.64.93.88l.44.38s-1 0-2-.1l-1.36-.12c-.38 0-.62-.07-.62-.07l-1.36-1.42-1.24-1.5s1 .2 2 .36c.48.09 1 .15 1.34.19zM18.65 75.74L19.78 77 21 78.3v.58s.06.81.11 1.28c.08 1 .23 1.89.23 1.89l-.43-.38-.91-.86c-.33-.32-.67-.63-.9-.88l-.4-.42v-.6-1.31c-.08-.94-.05-1.86-.05-1.86zM15.39 76.52l.36.46c.21.28.5.64.81 1l.84 1 .28.31.11.12-.61-.08-1.32-.22-1.35-.26-.6-.14-.38-.48c-.22-.29-.54-.67-.82-1.07L11.92 76l-.26-.36-.09-.14.16.05.44.13 1.31.37c.47.13.94.26 1.3.33zM16.16 72.42l.08.12.23.32.69 1c.24.36.53.68.72.94l.33.43V79.03l-.11-.11-.28-.31-.83-1c-.31-.34-.59-.7-.8-1l-.35-.45v-.6c0-.35.05-.83.1-1.31s.1-.94.14-1.28v-.42zM12.83 72.86l.31.49c.19.29.43.69.7 1.07l.74 1 .24.34.09.13-.58-.15-1.33-.31c-.48-.13-1-.28-1.31-.4l-.59-.2-.33-.52-.34-.53c-.12-.2-.24-.41-.36-.62L9.44 72c-.09-.16-.16-.3-.21-.39l-.08-.15.57.25 1.27.5 1.26.47zM14 68.86l.07.13c0 .08.1.21.19.34l.59 1c.11.19.21.38.32.55l.3.47.29.45-.09.58c-.06.35-.11.81-.16 1.28s-.09.94-.12 1.3 0 .6 0 .6l-.09-.13-.3-.29-.73-1c-.27-.37-.5-.77-.69-1.06l-.31-.48.08-.59c.06-.36.15-.83.24-1.29s.19-.92.26-1.26.15-.6.15-.6zM10.67 69l.85 1.66.93 1.61s-.9-.32-1.83-.69c-.47-.18-.91-.38-1.25-.53l-.57-.26-.28-.55c-.18-.32-.37-.78-.58-1.22s-.41-.9-.55-1.23l-.23-.57.54.31c.32.18.78.41 1.21.63l1.21.59c.32.12.55.25.55.25zM12.28 65.1l.2.5c.13.3.31.69.49 1.08s.35.79.5 1.08l.25.48-.15.57c-.09.34-.21.81-.3 1.26-.19.92-.35 1.88-.35 1.88l-.92-1.6-.84-1.63s0-.23.15-.58.23-.81.37-1.26.27-.89.39-1.23zM8.92 64.86l.68 1.73c.17.43.38.85.51 1.17l.24.53s-.87-.41-1.76-.87-1.73-1-1.73-1l-.22-.57c-.13-.34-.28-.81-.44-1.28-.33-.93-.59-1.88-.59-1.88l.51.36c.3.22.71.49 1.14.76.83.56 1.66 1.05 1.66 1.05zM10.92 61.18l.15.52c.08.31.23.72.37 1.13s.27.82.39 1.12l.2.5s-.33.87-.63 1.77-.54 1.83-.54 1.83l-.24-.52c-.14-.32-.34-.73-.51-1.16l-.67-1.71s.35-.91.71-1.78c.18-.43.36-.86.52-1.18zM32.9 89.94l1.73.68 1.76.6s-.89.35-1.83.69c-.47.18-.93.31-1.29.43l-.6.18-.57-.23c-.35-.13-.79-.34-1.24-.54l-1.23-.56-.55-.28s1-.19 1.94-.45l1.3-.35zM31.56 86l.48.25 1.08.49c.39.18.78.37 1.09.48l.5.2.26.52c.16.31.37.75.61 1.14.46.81 1 1.64 1 1.64l-1.74-.59-1.71-.67s-.11-.21-.27-.54-.36-.76-.56-1.19c-.41-.87-.74-1.73-.74-1.73z"/><path class="cls-3" d="M91.7 43l.09.57c0 .34.13.79.19 1.25l.17 1.83s-.69-.69-1.37-1.32l-.5-.46-.46-.39-.45-.37-.08-.53c-.06-.32-.1-.75-.19-1.17l-.37-1.69s.75.53 1.51 1.11l.56.43.46.39zM94.08 39.39l.42 1.92c.1.48.16 1 .22 1.33l.09.61-.31.54-.32.54c-.12.2-.26.41-.4.62-.55.83-1.1 1.62-1.1 1.62l-.17-1.85c-.06-.46-.14-.92-.19-1.26l-.09-.57.31-.53.31-.55.33-.63c.47-.88.9-1.79.9-1.79zM90.76 38.67l.16.55c.11.33.19.78.29 1.23l.27 1.23.09.41v.16s-.18-.15-.47-.38l-1-.79-1-.76c-.28-.2-.48-.33-.48-.33l-.47-1.66c-.06-.21-.11-.42-.18-.61l-.18-.52-.18-.51.39.31c.3.17.73.4 1.12.65.88.47 1.64 1.02 1.64 1.02zM92.75 34.86l.2.58.21.59c.08.22.13.46.21.69l.54 1.89s-.09.23-.26.57-.38.79-.6 1.23-.45.87-.61 1.19-.29.53-.29.53v-.16l-.15-.4-.27-1.25c-.1-.45-.19-.91-.29-1.24l-.16-.56s.4-.88.78-1.8c.19-.46.34-.92.47-1.27zM89.39 34.49l.06.15.14.39.41 1.18c.15.43.31.86.4 1.2l.16.55-.5-.33-.51-.33-.61-.36c-.83-.48-1.64-.91-1.64-.91l-.18-.51-.46-1.1-.46-1.1-.2-.47.54.23c.33.14.74.34 1.16.55.82.37 1.69.86 1.69.86zM91 30.49l.27.55.53 1.25.52 1.25.21.58s-.32 1-.66 1.88l-.25.67-.25.58-.24.56-.16-.56c-.08-.34-.25-.77-.4-1.21l-.42-1.21-.14-.4-.06-.15s.29-.91.57-1.86c.13-.47.28-1 .36-1.32zM87.57 30.47l.81 1.65c.2.41.36.84.5 1.16l.22.53s-.86-.44-1.7-.84c-.42-.2-.87-.38-1.2-.51l-.54-.22-.24-.48-.24-.5c-.1-.18-.21-.36-.31-.55L84 29.19s.87.28 1.77.6l1.24.45zM88.74 26.33l1 1.71c.12.21.24.43.35.63l.28.56.27.55-.13.61c-.08.37-.18.84-.31 1.32-.27 1-.56 1.88-.56 1.88l-.22-.54c-.14-.32-.3-.76-.51-1.17l-.82-1.67.14-.6c.07-.35.15-.83.24-1.32l.27-1.96zM85.35 26.67l.31.48c.18.29.45.67.67 1.07l.91 1.6s-.91-.35-1.8-.65-1.79-.56-1.79-.56l-.94-1.45-1-1.39s.9.18 1.84.4c.47.1.92.24 1.26.34zM86.08 22.43L87.25 24l1.07 1.65s-.09 1-.26 2-.34 1.92-.34 1.92l-.92-1.62c-.22-.41-.49-.79-.67-1.09l-.32-.49.07-.61c0-.36.1-.86.12-1.35.06-.97.08-1.98.08-1.98zM82.76 23.11l.37.44c.22.26.48.64.76 1l.75 1c.1.14.18.26.24.34l.09.13-.57-.16-1.28-.3-1.26-.27-.41-.08h-.16l-1.1-1.33-.41-.49-.38-.4-.4-.4.58.05c.35 0 .83.07 1.29.15.93.15 1.89.32 1.89.32zM83 18.83l.42.45.43.46.46.55 1.25 1.51v.63c0 .38 0 .88-.05 1.37s-.05 1-.08 1.34-.06.61-.06.61l-.09-.13c-.05-.09-.13-.21-.24-.35l-.76-1c-.28-.37-.54-.76-.77-1l-.37-.45v-2c0-.5-.05-1-.08-1.36zM79.82 19.83l.11.11.28.3.86.92c.31.34.63.67.84.94l.37.44-.59-.1-.6-.1-.7-.08c-1-.11-1.87-.18-1.87-.18l-.37-.4-.86-.82-.85-.86-.44-.3h1.87c.97.06 1.95.13 1.95.13zM79.67 15.54l.47.4 1 .93 1 .93.42.45s.09 1 .15 2v1.95l-.37-.45c-.21-.28-.54-.61-.85-1l-.87-.93-.29-.31-.12-.11s-.1-1-.23-1.93c-.07-.49-.13-1-.2-1.36zM76.55 16.88l1.4 1.19c.35.3.67.63.92.86l.42.4s-1-.06-1.9-.09H75.5l-.41-.35-.42-.36-.51-.38-1.38-1s.91-.09 1.86-.16l1.36-.1zM76 12.61l1.57 1.18.58.43.48.41.47.4.12.61c.07.37.17.84.24 1.33.14 1 .24 1.95.24 1.95l-.42-.4c-.26-.24-.58-.57-.93-.87l-1.42-1.2-.11-.6c-.08-.35-.19-.82-.31-1.3-.27-.96-.51-1.94-.51-1.94zM91 60.46s0 .22-.15.55l-.34 1.21c-.12.44-.27.88-.38 1.2l-.18.54-.22-.56c-.14-.33-.31-.77-.5-1.2-.4-.87-.81-1.7-.81-1.7s.06-.21.14-.52l.27-1.16c.1-.42.2-.84.25-1.16l.09-.53.31.5c.18.3.43.71.65 1.12.44.84.87 1.71.87 1.71zM94.6 58.12l-.11.61c-.06.36-.17.84-.28 1.32l-.3 1.32c-.09.36-.16.59-.16.59s-.82.6-1.62 1.15c-.41.28-.83.54-1.14.73l-.52.32.19-.55c.11-.33.27-.77.39-1.22l.35-1.23c.1-.33.15-.56.15-.56s.77-.57 1.55-1.19c.4-.31.77-.63 1-.87zM91.85 56.14v.16c0 .1 0 .24-.06.41l-.22 1.24-.12.66-.13.57-.13.56-.28-.53c-.17-.32-.38-.73-.63-1.14-.48-.82-1-1.6-1-1.6v-.15c0-.09 0-.23.06-.39l.15-1.18.08-.63v-1.09l.35.46c.21.28.51.66.76 1 .65.83 1.17 1.65 1.17 1.65zM95.19 53.44v1.24l-.19.72-.17 1.34c0 .18 0 .33-.07.44v.17s-.75.68-1.5 1.31c-.36.32-.77.62-1.05.84l-.48.37.13-.57.13-.58.12-.67.22-1.26c0-.17.05-.32.06-.42v-.16s.71-.65 1.42-1.34c.37-.35.69-.7.95-1zM92.25 51.75v.58l-.1 1.26c0 .46-.07.92-.12 1.26l-.07.57-.33-.5c-.2-.3-.46-.69-.75-1.07-.57-.77-1.13-1.49-1.13-1.49V48.9l.4.43c.23.26.58.61.87 1 .63.67 1.23 1.42 1.23 1.42zM95.3 48.73v3.92s-.68.75-1.36 1.46c-.33.35-.69.7-1 .95l-.44.42.07-.58c.05-.35.09-.81.12-1.27l.1-1.27v-.58s.64-.72 1.28-1.48c.33-.38.61-.77.84-1.07zM92.21 47.34l.06 1.84V51l-.38-.46c-.22-.28-.52-.64-.85-1-.64-.71-1.29-1.37-1.29-1.37v-.54c0-.32-.07-.75-.1-1.18l-.11-1.18a4.77 4.77 0 0 0-.06-.54l.12.1.32.28.94.88.94.92.31.31zM94.94 44a6.06 6.06 0 0 1 .07.61l.13 1.39c0 .49.1 1 .11 1.35v.61s-.6.82-1.19 1.59c-.29.39-.61.76-.85 1l-.4.46v-.58-1.28l-.06-1.86.1-.13.25-.36.76-1.11.75-1.15.24-.39zM70 87.53l-.14.08-.37.19-1.12.58c-.41.22-.83.39-1.14.53l-.52.24s.42-.87.8-1.73.69-1.75.69-1.75l.48-.25 1-.59c.37-.22.75-.42 1-.61l.45-.29-.16.56-.17.58-.22.65c-.24.9-.58 1.81-.58 1.81zM74.16 88.59l-.52.33c-.31.21-.74.44-1.16.69l-1.17.67-.55.28s-1-.19-1.94-.41-1.89-.51-1.89-.51l.53-.24c.31-.15.75-.32 1.16-.54l1.14-.58.37-.19.14-.08s.94.18 1.92.33l.72.11.63.07zM73.75 85.22l-.13.09-.34.23-1.06.68-.57.36-.51.29-.5.29.2-.56c.12-.34.28-.78.42-1.24.28-.92.51-1.81.51-1.81l.13-.08.32-.22 1-.69.52-.37.44-.34.42-.33-.1.57c-.07.34-.14.82-.25 1.27-.25.92-.5 1.86-.5 1.86zM78 85.85l-.48.38-.5.39-.59.42-1.1.78-.37.25-.14.09s-1-.09-2-.21c-.48-.06-1-.15-1.34-.2l-.6-.1.5-.29.52-.3.58-.36 1.1-.7.35-.24.13-.09s1 .08 2 .14h1.36zM77.24 82.54l-.43.38-1 .78c-.36.28-.72.57-1 .76l-.47.33.15-.58.14-.59.14-.69c.18-.94.33-1.84.33-1.84l.11-.09.3-.26.9-.78c.33-.28.63-.59.87-.81l.39-.37s-.07.92-.16 1.87-.27 1.89-.27 1.89zM81.54 82.73l-.44.42c-.27.25-.61.6-1 .92l-1 .88-.34.29-.13.11H74.67l.47-.34c.29-.19.65-.49 1-.77l1-.79.46-.45s1 0 2-.06 1.94-.21 1.94-.21zM80.45 79.51l-.4.42c-.23.26-.57.57-.9.88l-.92.87-.43.38s.15-.94.23-1.89c0-.47.08-.94.11-1.28s0-.58 0-.58L79.37 77l1.13-1.31v3.18zM84.74 79.27l-1.29 1.49-1.35 1.42s-.24 0-.62.07l-1.36.12c-1 .09-2 .1-2 .1l.44-.38.93-.88c.34-.32.68-.64.91-.9l.4-.42.6-.07c.36 0 .86-.1 1.34-.19 1.01-.16 2-.36 2-.36zM83.32 76.18l-.35.45c-.21.27-.49.63-.8 1l-.83 1-.28.31L81 79v-.6-1.32-1.88l.33-.43c.19-.26.48-.59.72-.94l.69-1 .23-.32.08-.12v.58c0 .35.09.81.14 1.28s.09 1 .1 1.31zM87.57 75.5l-.09.14-.26.36-.78 1.1c-.28.41-.6.78-.82 1.07l-.38.48-.6.14-1.35.26-1.29.23-.61.08.11-.12.28-.31.84-1c.31-.35.6-.71.81-1l.36-.46.6-.13c.36-.08.83-.2 1.3-.33l1.31-.33.44-.13zM85.84 72.57l-.31.48c-.19.29-.42.68-.69 1.06l-.73 1-.24.34-.09.13v-.6s-.07-.84-.12-1.3-.1-.93-.16-1.28l-.09-.58.29-.45.3-.47c.11-.17.21-.36.32-.55l.59-1c.08-.14.14-.26.19-.34l.07-.13s.06.23.14.57.17.79.26 1.26.18.94.24 1.29zM90 71.45l-.08.15c0 .1-.12.23-.21.39L89 73.17c-.12.21-.24.43-.36.62l-.34.53-.33.52-.59.2c-.35.12-.83.26-1.31.4l-1.3.35-.58.15.09-.13.24-.34.74-1c.27-.38.51-.78.7-1.07l.31-.49.58-.19 1.26-.47 1.27-.5zM88 68.72l-.84 1.63-.91 1.59s-.17-1-.35-1.88c-.09-.46-.21-.92-.3-1.26l-.15-.57.25-.48c.16-.28.33-.68.5-1.08s.36-.79.49-1.08l.2-.5.2.55c.12.34.25.77.39 1.23s.27.91.37 1.26.15.59.15.59zM92 67.17l-.23.57c-.15.34-.35.79-.55 1.23s-.4.9-.58 1.22l-.28.55-.57.26c-.34.15-.78.36-1.25.53-.93.36-1.83.69-1.83.69l.93-1.61.84-1.61s.23-.09.55-.25l1.21-.59c.44-.22.89-.45 1.21-.63zM89.71 64.67L89 66.38c-.16.43-.37.84-.51 1.16l-.24.52s-.26-.93-.54-1.83-.63-1.77-.63-1.77l.2-.5c.12-.3.24-.72.39-1.12s.29-.81.37-1.13l.15-.52.25.53c.16.32.34.75.52 1.18.4.86.75 1.77.75 1.77zM93.53 62.71s-.25 1-.59 1.88c-.16.46-.31.93-.44 1.28l-.22.57s-.87.51-1.73 1-1.76.87-1.76.87l.24-.53c.14-.32.35-.74.51-1.17l.68-1.73s.82-.49 1.66-1c.42-.27.84-.54 1.14-.76zM66 89.43l-1.71.67-1.74.59s.51-.83 1-1.64c.24-.4.45-.83.61-1.14l.26-.52.5-.2c.31-.11.69-.3 1.09-.48l1.08-.49.48-.25s-.33.88-.73 1.73c-.2.43-.4.86-.56 1.19s-.28.54-.28.54zM70.06 90.92l-.55.28-1.23.56c-.45.2-.89.41-1.24.54l-.57.23-.6-.18c-.36-.11-.82-.25-1.29-.43-.94-.34-1.83-.69-1.83-.69l1.76-.6 1.73-.68.58.17 1.3.35c.96.26 1.94.45 1.94.45zM73 14.26l.13.08.34.24 1 .73c.37.27.75.53 1 .75l.45.36h-1.2l-.7.06c-1 .09-1.87.2-1.87.2l-.44-.31-1-.63-1-.63-.47-.26.58-.13c.35-.08.8-.15 1.27-.22l1.91-.24zM72 10.08l.54.3 1.15.71 1.14.72.5.35s.29 1 .55 1.91c.06.24.13.47.18.69l.14.62.13.6-.45-.36c-.27-.23-.65-.49-1-.76l-1-.74-.34-.24-.14-.08s-.29-.91-.61-1.85c-.16-.46-.33-.95-.47-1.29zM68.67 13.31l4.17.45-2.77-3.15-4.16-.45 2.76 3.15zM26.07 14.26l-.13.08-.34.24-1 .73c-.37.27-.75.53-1 .75l-.45.36h1.2l.7.06c1 .09 1.87.2 1.87.2l.44-.31 1-.63 1-.63.47-.26-.58-.13c-.35-.08-.8-.15-1.27-.22-.98-.12-1.91-.24-1.91-.24zM27.09 10.08l-.54.3-1.15.71-1.14.72-.5.35s-.29 1-.55 1.91c-.06.24-.13.47-.18.69l-.14.62-.13.6.45-.36c.27-.23.65-.49 1-.76l1-.74.34-.24.14-.08s.29-.91.61-1.85c.16-.46.33-.95.47-1.29zM30.42 13.31l-4.17.45 2.77-3.15 4.17-.45-2.77 3.15zM6.9 42.88l-.09.57c-.05.34-.13.8-.19 1.26l-.17 1.85s-.55-.79-1.1-1.62c-.13-.21-.28-.42-.4-.62l-.32-.54-.31-.54.09-.61c.06-.36.12-.85.22-1.33l.42-1.92s.43.92.88 1.78l.33.63.31.55zM10.44 40.66l-.37 1.69c-.09.42-.14.85-.19 1.17l-.08.53-.45.37-.46.39-.5.46c-.7.66-1.39 1.34-1.39 1.34l.17-1.83c.06-.46.14-.91.19-1.25l.08-.53.45-.39.46-.39.56-.43c.78-.6 1.53-1.13 1.53-1.13zM7.85 38.52l-.16.56c-.11.33-.19.79-.29 1.24l-.27 1.25L7 42v.16s-.13-.21-.29-.53-.39-.75-.61-1.19-.44-.89-.6-1.23-.26-.57-.26-.57l.54-1.89c.07-.24.13-.48.21-.69l.21-.59.2-.58.21.59c.13.35.28.81.47 1.27.38.89.77 1.77.77 1.77zM11.61 36.69l-.18.51-.18.52c-.07.19-.12.4-.18.61L10.59 40s-.2.13-.48.33l-1 .76-1 .79c-.29.22-.47.38-.47.38v-.16l.09-.41.27-1.23c.1-.45.18-.9.29-1.23l.16-.55s.8-.54 1.59-1c.39-.25.82-.48 1.12-.65zM9.24 34.28l-.06.15-.14.4L8.62 36c-.15.44-.32.87-.4 1.21l-.16.56-.24-.56-.25-.58-.25-.63c-.34-.92-.66-1.88-.66-1.88l.21-.58.52-1.25.52-1.29.27-.55.14.6c.08.36.23.85.36 1.32.32 1 .56 1.91.56 1.91zM13.18 32.85l-.24.48-.46 1.1-.48 1.1-.18.51s-.81.44-1.64.91l-.61.36-.51.33-.5.33.16-.55c.08-.33.25-.76.4-1.2L9.56 35l.14-.39.06-.15s.86-.45 1.71-.86c.43-.2.84-.41 1.16-.55zM11.08 30.22l-.82 1.67c-.2.42-.37.85-.51 1.17l-.22.54s-.29-.92-.56-1.88c-.13-.48-.23-1-.31-1.32l-.13-.61.27-.55.28-.56c.11-.2.23-.42.35-.63l1-1.71s.14 1 .31 2c.08.49.17 1 .24 1.32zM15.13 29.19l-.85 1.5c-.11.19-.22.37-.31.55l-.24.5-.24.48-.54.22c-.32.14-.77.31-1.2.51-.84.4-1.7.84-1.7.84l.22-.53c.14-.31.3-.75.5-1.16l.81-1.65.55-.23 1.24-.45c.89-.3 1.76-.58 1.76-.58zM13.33 26.37l-.32.49c-.19.29-.45.68-.67 1.09l-.92 1.62s-.18-.94-.34-1.92-.26-2-.26-2L11.9 24l1.16-1.58s0 1 .08 2c0 .48.08 1 .12 1.35zM17.47 25.76l-1 1.39-.94 1.45s-.91.24-1.79.56-1.8.65-1.8.65l.91-1.6c.22-.41.48-.78.66-1.07l.31-.48.57-.17c.34-.1.79-.23 1.26-.34.91-.2 1.82-.39 1.82-.39zM16 22.76l-.37.45c-.23.27-.49.65-.77 1l-.76 1c-.11.14-.18.26-.24.35l-.09.13s0-.25-.06-.61-.05-.84-.08-1.34 0-1-.05-1.37v-.57l1.25-1.51.46-.55.43-.46.42-.45v.62c0 .38-.07.85-.08 1.36-.06.99-.06 1.95-.06 1.95zM20.14 22.59l-.37.39-.38.4-.41.49-1.1 1.33h-.16l-.41.08-1.26.27-1.28.3-.57.16.09-.13c.05-.08.13-.21.24-.34l.75-1c.28-.37.53-.75.76-1l.37-.44s1-.18 1.88-.32c.46-.08.94-.11 1.29-.15zM18.94 19.44l-.12.11-.29.31-.87.93c-.32.34-.64.68-.85 1l-.37.45v-1.29-.71c.06-1 .15-2 .15-2l.42-.45 1-.93 1-.93.47-.4-.12.61c-.07.36-.13.87-.2 1.36-.16.99-.22 1.94-.22 1.94zM23.12 19.7l-.42.3-.86.82-.86.82-.37.4s-.92.07-1.87.18l-.7.08-.6.1-.59.1.37-.44c.21-.27.53-.6.84-.94l.86-.92.28-.3.11-.11s1-.07 1.91-.11h1.28zM22.25 16.45l-1.42 1.2c-.36.3-.68.64-.93.87l-.42.4s.1-1 .24-1.95c.07-.49.17-1 .24-1.33l.12-.61.47-.4.48-.41.58-.43 1.57-1.18s-.27 1-.51 1.93c-.12.48-.23.95-.31 1.3zM26.37 17.12l-1.38 1-.51.38-.42.36-.41.35h-1.88c-.93 0-1.9.09-1.9.09l.42-.4c.25-.23.57-.56.92-.86l1.4-1.19h.59l1.32.08c.94.07 1.85.19 1.85.19zM7.61 60.59s0 .23.15.56l.35 1.23c.12.45.27.89.39 1.22l.19.55-.52-.32c-.31-.19-.73-.45-1.14-.73C6.22 62.55 5.4 62 5.4 62s-.07-.24-.16-.59L4.93 60c-.11-.48-.22-1-.28-1.32l-.11-.61.47.41c.28.24.65.57 1 .87.83.65 1.6 1.24 1.6 1.24zM10 57.14l.09.53c0 .32.15.74.25 1.16l.25 1.17c.08.31.14.52.14.52s-.41.83-.81 1.7c-.19.43-.37.87-.5 1.2L9.2 64l-.2-.57c-.11-.33-.26-.76-.38-1.2L8.29 61c-.1-.33-.15-.55-.15-.55s.44-.87.88-1.69c.22-.41.46-.82.65-1.12zM6.75 56.21v.16c0 .1 0 .25.06.42L7.06 58l.12.67.13.58.13.57L7 59.5c-.29-.22-.69-.53-1.05-.84-.74-.63-1.5-1.31-1.5-1.31v-.17c0-.11 0-.26-.07-.44l-.24-1.34-.14-.72v-1.24l.42.46c.26.27.58.63.95 1 .63.67 1.38 1.31 1.38 1.31zM9.46 53v1.09l.08.63.15 1.18c0 .16 0 .29.06.39v.15s-.49.78-1 1.6c-.25.41-.46.83-.63 1.14l-.12.56-.13-.56-.13-.57-.12-.66-.24-1.25c0-.17-.05-.31-.06-.41v-.16s.52-.82 1.05-1.59c.25-.39.55-.77.76-1zM6.34 51.77v.58l.1 1.27c0 .46.07.93.12 1.27l.07.58-.44-.42c-.27-.25-.63-.59-1-.95-.68-.7-1.36-1.46-1.36-1.46V48.72l.37.5c.23.3.51.69.84 1.07.66.77 1.3 1.48 1.3 1.48zM9.37 48.88v3.46s-.57.72-1.13 1.49c-.29.38-.55.78-.75 1.07l-.33.5-.07-.57C7.08 54.5 7 54 7 53.58l-.1-1.26v-.58s.6-.74 1.2-1.47c.29-.36.63-.71.87-1zM6.38 47.31l-.06 1.86V51l-.4-.46c-.24-.28-.56-.66-.85-1-.6-.77-1.19-1.59-1.19-1.59v-.61C3.9 47 4 46.47 4 46l.13-1.35a6.07 6.07 0 0 1 .08-.65l.09.15.24.39.75 1.15.71 1.13.25.36zM9.68 44.74a4.77 4.77 0 0 0-.06.54l-.11 1.18c0 .43-.09.86-.1 1.18v.54s-.64.66-1.29 1.37c-.33.35-.63.72-.85 1l-.39.45v-.57-1.26l.06-1.84.06-.1.31-.31.99-.92.94-.88.32-.28zM28.88 88l.14.08.37.19 1.14.58c.41.22.84.39 1.16.54l.53.24s-.93.26-1.89.51-1.94.41-1.94.41l-.55-.28-1.17-.67c-.43-.25-.86-.48-1.16-.69l-.51-.32.62-.06.63-.07.72-.11c.97-.16 1.91-.35 1.91-.35zM28 83.93l.45.29c.27.18.65.39 1 .61l1 .59.48.25s.32.87.69 1.75.8 1.73.8 1.73l-.52-.24c-.31-.15-.74-.32-1.14-.53l-1.12-.58-.37-.19-.14-.08s-.34-.91-.64-1.8l-.22-.65-.17-.58zM25.08 85.68l.13.09.35.24 1.08.69.58.36.52.3.5.29-.6.1c-.36.06-.85.15-1.34.2-1 .12-2 .21-2 .21l-.14-.09-.37-.25-1.08-.82-.59-.42-.5-.39-.48-.38h1.98c1.01-.05 1.96-.13 1.96-.13zM24.58 81.52l.42.33.44.34.52.37 1 .69.32.22.13.08s.24.89.51 1.81c.14.46.3.89.42 1.24l.2.56-.5-.29-.51-.29-.57-.36-1.06-.68-.34-.23-.13-.09s-.25-.94-.46-1.85c-.11-.45-.19-.93-.25-1.27zM21.54 83l.44.38 1 .79c.37.29.73.58 1 .77l.47.34h-3.96l-.13-.11-.3-.17-1-.88c-.38-.32-.72-.67-1-.92l-.44-.42s1 .1 2 .17 1.92.05 1.92.05zM21.47 78.78l.39.37c.24.22.54.53.87.81l.9.78.3.26.11.09s.15.91.33 1.84l.14.69.14.59.15.58-.47-.33c-.29-.19-.64-.48-1-.76l-1-.78-.43-.38s-.16-1-.27-1.88-.16-1.88-.16-1.88zM18.3 79.9l.4.42c.23.26.58.57.91.9s.67.64.93.88l.44.38s-1 0-2-.1l-1.36-.12c-.38 0-.62-.07-.62-.07l-1.36-1.42-1.24-1.5s1 .2 2 .36c.48.09 1 .15 1.34.19zM18.65 75.74L19.78 77 21 78.3v.58s.06.81.11 1.28c.08 1 .23 1.89.23 1.89l-.43-.38-.91-.86c-.33-.32-.67-.63-.9-.88l-.4-.42v-.6-1.31c-.08-.94-.05-1.86-.05-1.86zM15.39 76.52l.36.46c.21.28.5.64.81 1l.84 1 .28.31.11.12-.61-.08-1.32-.22-1.35-.26-.6-.14-.38-.48c-.22-.29-.54-.67-.82-1.07L11.92 76l-.26-.36-.09-.14.16.05.44.13 1.31.37c.47.13.94.26 1.3.33zM16.16 72.42l.08.12.23.32.69 1c.24.36.53.68.72.94l.33.43V79.03l-.11-.11-.28-.31-.83-1c-.31-.34-.59-.7-.8-1l-.35-.45v-.6c0-.35.05-.83.1-1.31s.1-.94.14-1.28v-.42zM12.83 72.86l.31.49c.19.29.43.69.7 1.07l.74 1 .24.34.09.13-.58-.15-1.33-.31c-.48-.13-1-.28-1.31-.4l-.59-.2-.33-.52-.34-.53c-.12-.2-.24-.41-.36-.62L9.44 72c-.09-.16-.16-.3-.21-.39l-.08-.15.57.25 1.27.5 1.26.47zM14 68.86l.07.13c0 .08.1.21.19.34l.59 1c.11.19.21.38.32.55l.3.47.29.45-.09.58c-.06.35-.11.81-.16 1.28s-.09.94-.12 1.3 0 .6 0 .6l-.09-.13-.3-.29-.73-1c-.27-.37-.5-.77-.69-1.06l-.31-.48.08-.59c.06-.36.15-.83.24-1.29s.19-.92.26-1.26.15-.6.15-.6zM10.67 69l.85 1.66.93 1.61s-.9-.32-1.83-.69c-.47-.18-.91-.38-1.25-.53l-.57-.26-.28-.55c-.18-.32-.37-.78-.58-1.22s-.41-.9-.55-1.23l-.23-.57.54.31c.32.18.78.41 1.21.63l1.21.59c.32.12.55.25.55.25zM12.28 65.1l.2.5c.13.3.31.69.49 1.08s.35.79.5 1.08l.25.48-.15.57c-.09.34-.21.81-.3 1.26-.19.92-.35 1.88-.35 1.88l-.92-1.6-.84-1.63s0-.23.15-.58.23-.81.37-1.26.27-.89.39-1.23zM8.92 64.86l.68 1.73c.17.43.38.85.51 1.17l.24.53s-.87-.41-1.76-.87-1.73-1-1.73-1l-.22-.57c-.13-.34-.28-.81-.44-1.28-.33-.93-.59-1.88-.59-1.88l.51.36c.3.22.71.49 1.14.76.83.56 1.66 1.05 1.66 1.05zM10.92 61.18l.15.52c.08.31.23.72.37 1.13s.27.82.39 1.12l.2.5s-.33.87-.63 1.77-.54 1.83-.54 1.83l-.24-.52c-.14-.32-.34-.73-.51-1.16l-.67-1.71s.35-.91.71-1.78c.18-.43.36-.86.52-1.18zM32.9 89.94l1.73.68 1.76.6s-.89.35-1.83.69c-.47.18-.93.31-1.29.43l-.6.18-.57-.23c-.35-.13-.79-.34-1.24-.54l-1.23-.56-.55-.28s1-.19 1.94-.45l1.3-.35zM31.56 86l.48.25 1.08.49c.39.18.78.37 1.09.48l.5.2.26.52c.16.31.37.75.61 1.14.46.81 1 1.64 1 1.64l-1.74-.59-1.71-.67s-.11-.21-.27-.54-.36-.76-.56-1.19c-.41-.87-.74-1.73-.74-1.73z"/><path class="cls-4" d="M62.21 6.39a1.64 1.64 0 0 0-1.38-.61 3 3 0 0 0-2.36 1 2.71 2.71 0 0 0-.81 2.06V9h-.1a5.21 5.21 0 0 1-2 .48.81.81 0 0 1-.71-.33 4 4 0 0 0 2.1-1 1.73 1.73 0 0 0 .73-1.37q-.08-1-1.36-1a3.25 3.25 0 0 0-2.4 1 2.92 2.92 0 0 0-.94 2 2.36 2.36 0 0 0 0 .34.74.74 0 0 1-.33.15c-.17 0-.27 0-.31-.1a.72.72 0 0 1-.05-.38 6.89 6.89 0 0 1 .16-.8 6 6 0 0 0 .16-.99 1.16 1.16 0 0 0-.21-.82 1 1 0 0 0-.9-.3 2 2 0 0 0-1 .39 3.39 3.39 0 0 0-.59.56l-.2.17a1.28 1.28 0 0 0-.21-.82 1 1 0 0 0-.91-.3 2.32 2.32 0 0 0-1.35.59 2.44 2.44 0 0 0-.46.52 1.16 1.16 0 0 0 0-.25 1.23 1.23 0 0 0-.21-.71.58.58 0 0 0-.55-.28q-.2 0-.74.52l-.82.76.31.35a1.44 1.44 0 0 1 .44-.26c.09 0 .13.08.12.23a7.3 7.3 0 0 1-.12.94c0 .25-.08.46-.1.65a1.44 1.44 0 0 1-.65.39c-.28 0-.41-.19-.41-.56q.2-1.22.37-2a1.09 1.09 0 0 0-.15-.76.64.64 0 0 0-.63-.25 1.87 1.87 0 0 0-.84.52l-.39.36c0-.62-.3-.93-.84-1q-1.21 0-1.64 1.37a1.08 1.08 0 0 1 .43-.1q.44 0 .39.5a2.27 2.27 0 0 1-.39.88q-.37.58-.55.58t-.43-.89q-.07-.26-.24-1.33t-.84-.93a1.92 1.92 0 0 0-.86.52l-.85.76.27.35a1.79 1.79 0 0 1 .46-.27q.3 0 .56.94l.47 1.72q.35.94.86.94.82 0 2-1.54a6.57 6.57 0 0 0 1.11-1.74 1.3 1.3 0 0 1 .41-.25c.16 0 .24.11.24.34 0 0-.09.37-.26 1a6.14 6.14 0 0 0-.27 1.33 1 1 0 0 0 .2.68.76.76 0 0 0 .62.26A2.69 2.69 0 0 0 45 10l.15-.15a1.06 1.06 0 0 0 .24.49 1.61 1.61 0 0 0 1.27.38 2.74 2.74 0 0 1-.09-1 3.81 3.81 0 0 1 .43-1.6q.38-.75.71-.74c.25 0 .37.16.35.48a3.3 3.3 0 0 1-.13.74 3.51 3.51 0 0 0-.13.84 1.15 1.15 0 0 0 .3 1 1.84 1.84 0 0 0 1.28.3 1.93 1.93 0 0 1-.11-.86 3.61 3.61 0 0 1 .54-1.65q.47-.81.81-.81c.21 0 .31.17.3.5a4.7 4.7 0 0 1-.16.91 4.75 4.75 0 0 0-.16 1q0 .94.82.94a2.69 2.69 0 0 0 1.75-.77l.06.11a1.67 1.67 0 0 0 1.51.71 5.58 5.58 0 0 0 2.81-.8l.3-.18a1.85 1.85 0 0 0 .2.33 1.89 1.89 0 0 0 1.57.67 2.76 2.76 0 0 0 2.08-.87 3.11 3.11 0 0 0 .89-2.07 2.1 2.1 0 0 0-.38-1.51zm-7.6 2.35a.75.75 0 0 1 0-.17 1.82 1.82 0 0 1 .42-1 1.08 1.08 0 0 1 .79-.57c.2 0 .3.12.29.35a1.27 1.27 0 0 1-.39.68 3 3 0 0 1-1.11.71zm6.15.26a1.19 1.19 0 0 1-1 .69.44.44 0 0 1-.4-.29 1.11 1.11 0 0 1-.12-.58 2.51 2.51 0 0 1 .39-1.26 1.26 1.26 0 0 1 1.1-.72c.14 0 .25.1.32.29a1.66 1.66 0 0 1 .1.65A2.48 2.48 0 0 1 60.76 9zM43.4 3.74a1.33 1.33 0 0 1 .86-.31.58.58 0 0 1 .46.21.61.61 0 0 1 .17.44.92.92 0 0 1-.33.62 1.16 1.16 0 0 1-.84.34c-.5 0-.74-.22-.72-.65a.9.9 0 0 1 .4-.65z"/></g></g></svg>
